<?xml version='1.0' encoding='iso-8859-1'?>
<svg version="1.1" xmlns="http://www.w3.org/2000/svg" viewBox="0 0 36 36" xmlns:xlink="http://www.w3.org/1999/xlink" enable-background="new 0 0 36 36">
  <g>
    <g>
      <path fill-rule="evenodd" d="m18,0c-9.941,0-18,8.059-18,18s8.059,18 18,18c9.941,0 18-8.059 18-18s-8.059-18-18-18zm0,34c-8.836,0-16-7.163-16-16s7.164-16 16-16c8.836,0 16,7.163 16,16s-7.164,16-16,16zm6-17h-5v-5c0-0.553-0.447-1-1-1-0.552,0-1,0.447-1,1v5h-5c-0.552,0-1,0.447-1,1 0,0.553 0.448,1 1,1h5v5c0,0.553 0.448,1 1,1 0.553,0 1-0.447 1-1v-5h5c0.553,0 1-0.447 1-1 0-0.553-0.447-1-1-1z"/>
    </g>
  </g>
</svg>
