<?xml version="1.0" encoding="iso-8859-1"?>
<!-- Generator: Adobe Illustrator 19.1.0, SVG Export Plug-In . SVG Version: 6.00 Build 0)  -->
<svg version="1.1" id="Capa_1" xmlns="http://www.w3.org/2000/svg" xmlns:xlink="http://www.w3.org/1999/xlink" x="0px" y="0px"
	 viewBox="0 0 47 47" style="enable-background:new 0 0 47 47;" xml:space="preserve">
<g id="printer">
	<g>
		<path d="M28,36h-9v2h9V36z M38.974,9.999L36,10V0H11v10L7.837,9.999C3.453,9.999,0,13.582,0,18v13c0,4.418,3.615,8,8,8h3v8h25v-8
			h3c4.385,0,8-3.582,8-8V18C47,13.582,43.359,9.999,38.974,9.999z M13,2h21v8H13V2z M34,45H13V29h21V45z M45,31
			c0,3.308-2.717,6-6,6h-3V27H11v10H8c-3.283,0-6-2.692-6-6V18c0-3.308,2.554-6.001,5.837-6.001h31.137
			C42.257,11.999,45,14.692,45,18V31z M37,18c-1.096,0-2,0.896-2,2c0,1.105,0.904,2,2,2s2-0.895,2-2C39,18.896,38.096,18,37,18z"/>
	</g>
</g>
<g>
</g>
<g>
</g>
<g>
</g>
<g>
</g>
<g>
</g>
<g>
</g>
<g>
</g>
<g>
</g>
<g>
</g>
<g>
</g>
<g>
</g>
<g>
</g>
<g>
</g>
<g>
</g>
<g>
</g>
</svg>
